<?xml version="1.0" encoding="UTF-8" standalone="no"?>
<!DOCTYPE svg PUBLIC "-//W3C//DTD SVG 1.1//EN" "http://www.w3.org/Graphics/SVG/1.1/DTD/svg11.dtd">
<svg
  width="800pt" height="500pt"
  viewBox="0.00 0.00 800.00 500.00"
  xmlns="http://www.w3.org/2000/svg"
  xmlns:xlink="http://www.w3.org/1999/xlink">
<g id="git" class="graph"
  transform="scale(1 1) rotate(0) translate(0 0)">
<title>Example Git graph</title>
<!-- Background-filling rectangle -->
<polygon
  fill="#ffffff" stroke="transparent"
  points="-4,4 -4,-122.2895 775.8627,-122.2895 775.8627,4 -4,4"/>

<defs>
  <g id="root-commit"> <!-- Double circle -->
    <ellipse fill="#f0f0f0" stroke="none" cx="0" cy="0" rx="15" ry="15"/>
    <ellipse fill="none" stroke="blue" cx="0" cy="0" rx="10" ry="10"/>
    <ellipse fill="none" stroke="blue" cx="0" cy="0" rx="7" ry="7"/>
  </g>
  <g id="commit">
    <ellipse fill="#f0f0f0" stroke="none" cx="0" cy="0" rx="15" ry="15"/>
    <ellipse fill="none" stroke="blue" cx="0" cy="0" rx="7" ry="7"/>
  </g>
  <g id="selected-commit"> <!-- Filled blue because -->
    <ellipse fill="#f0f0f0" stroke="none" cx="0" cy="0" rx="15" ry="15"/>
    <ellipse fill="blue" stroke="blue" cx="0" cy="0" rx="7" ry="7"/>
  </g>
</defs>
<use xlink:href="#root-commit" x="40" y="40" />
<use xlink:href="#commit" x="80" y="40" />
<use xlink:href="#selected-commit" x="120" y="40" />

<!-- Commit -->
<use xlink:href="#commit" x="100" y="140" />

<!-- Commit -->
<use xlink:href="#selected-commit" x="100" y="200" />
<text text-anchor="end" x="80" y="204"
  font-family="Mono" font-size="14.00" fill="black">master</text>

<!-- Vertical line -->
<line stroke="#f0f0f0" stroke-width="8" x1="100" y1="152" x2="100" y2="190" />
<line stroke="blue" x1="100" y1="150" x2="100" y2="193" />

<!-- Commit -->
<use xlink:href="#root-commit" x="100" y="260" />
<text text-anchor="end" x="80" y="264"
  font-family="Mono" font-size="14.00" fill="#777">ab01ef23</text>

<!-- Vertical line -->
<line stroke="#f0f0f0" stroke-width="8" x1="100" y1="208" x2="100" y2="252" />
<line stroke="blue" x1="100" y1="207" x2="100" y2="253" />

<!-- Commit -->
<use xlink:href="#commit" x="160" y="140" />

<!-- Bezier branching from master -->
<path d="M100,192 Q100,170  130,170         T160,147"
      fill="none" stroke="blue" />
<!-- Show Bezier control points
<path d="M100,192 L100,170 L130,170 L160,170 L160,147"
      fill="none" stroke="red" />
-->

<text text-anchor="middle" x="160" y="70"
  font-family="Mono" font-size="14.00" fill="#777">develop</text>
<line stroke="blue" stroke-dasharray="2 2" x1="160" y1="133" x2="160" y2="90" />
<polygon
  fill="none" stroke="blue"
  points="156,90 164,90 160,80"/>

<text text-anchor="end" x="42" y="338"
  font-family="Mono" font-size="10.00" fill="#777">time</text>
<line stroke="#777" x1="50" y1="342" x2="50" y2="330" />
<polygon
  fill="#777" stroke="none"
  points="48,332 52,332 50,325"/>
</g>
</svg>
