<?xml version="1.0" encoding="UTF-8" standalone="no"?>
<!DOCTYPE svg PUBLIC "-//W3C//DTD SVG 1.1//EN" "http://www.w3.org/Graphics/SVG/1.1/DTD/svg11.dtd">
<svg
  viewBox="0 0 700 500"
  xmlns="http://www.w3.org/2000/svg"
  xmlns:xlink="http://www.w3.org/1999/xlink">
<g id="git" class="graph"
  transform="scale(1 1) rotate(0) translate(0 0)">
<title>Example Git graph</title>
<defs>
  <g id="root-commit"> <!-- Double circle -->
    <ellipse fill="#f0f0f0" stroke="none" cx="0" cy="0" rx="15" ry="15"/>
    <ellipse fill="none" stroke="blue" cx="0" cy="0" rx="7" ry="7"/>
    <ellipse fill="none" stroke="blue" cx="0" cy="0" rx="4" ry="4"/>
  </g>
  <g id="commit">
    <ellipse fill="#f0f0f0" stroke="none" cx="0" cy="0" rx="15" ry="15"/>
    <ellipse fill="none" stroke="blue" cx="0" cy="0" rx="7" ry="7"/>
  </g>
  <g id="selected-commit"> <!-- Filled blue -->
    <ellipse fill="#f0f0f0" stroke="none" cx="0" cy="0" rx="15" ry="15"/>
    <ellipse fill="blue" stroke="blue" cx="0" cy="0" rx="7" ry="7"/>
  </g>
  <g id="arc"> <!-- Vertical arc -->
    <line stroke="#f0f0f0" stroke-width="8" x1="0" y1="8" x2="0" y2="52" />
    <line stroke="blue" x1="0" y1="07" x2="0" y2="53" />
  </g>
  <g id="left-arc"> <!-- Bezier arc, going to (bottom) left -->
    <path d="M-60,52 Q-60,30  -30,30       T0,7"
          fill="none" stroke="blue" />
    <!-- Show Bezier control points
    <path d="M-60,52 L-60,30 L-30,30 L0,30 L0,7"
          fill="none" stroke="red" />
    -->
  </g>
</defs>
<text text-anchor="start" x="5" y="20"
 font-family="Mono" font-size="14.00" fill="black">
example-2.git
</text>
<line stroke="#e0e0e0" 
 x1="30" y1="65"
 x2="30" y2="500"
 stroke-dasharray="5" />
<text text-anchor="middle" x="30" y="60"
 font-family="Mono" font-size="14.00" fill="black">
hotfix
</text>
<line stroke="#e0e0e0" 
 x1="110" y1="65"
 x2="110" y2="500"
 stroke-dasharray="5" />
<text text-anchor="middle" x="110" y="60"
 font-family="Mono" font-size="14.00" fill="black">
master
</text>
<line stroke="#e0e0e0" 
 x1="190" y1="65"
 x2="190" y2="500"
 stroke-dasharray="5" />
<text text-anchor="middle" x="190" y="60"
 font-family="Mono" font-size="14.00" fill="black">
develop
</text>
<line stroke="#e0e0e0" 
 x1="270" y1="65"
 x2="270" y2="500"
 stroke-dasharray="5" />
<text text-anchor="middle" x="270" y="60"
 font-family="Mono" font-size="14.00" fill="black">
feature*
</text>
<use xlink:href="#commit" x="30" y="300" />
<use xlink:href="#commit" x="110" y="240" />
<use xlink:href="#commit" x="110" y="360" />
<use xlink:href="#root-commit" x="110" y="420" />
<use xlink:href="#commit" x="190" y="180" />
<use xlink:href="#selected-commit" x="270" y="120" />
<path d="M110,353 Q110,330 80,330" fill="none" stroke="blue" /> <line stroke="blue" x1="80" y1="330" x2="60" y2="330" /> <path d="M30,307 Q30,330 60,330" fill="none" stroke="blue" />

<path d="M30,293 Q30,270 60,270" fill="none" stroke="blue" /> <line stroke="blue" x1="60" y1="270" x2="80" y2="270" /> <path d="M110,247 Q110,270 80,270" fill="none" stroke="blue" /> <line stroke="blue" x1="110" y1="247" x2="110" y2="247" />
<line stroke="blue" x1="110" y1="247" x2="110" y2="353" />

<line stroke="blue" x1="110" y1="367" x2="110" y2="413" />


<path d="M110,233 Q110,210 140,210" fill="none" stroke="blue" /> <line stroke="blue" x1="140" y1="210" x2="160" y2="210" /> <path d="M190,187 Q190,210 160,210" fill="none" stroke="blue" /> <line stroke="blue" x1="190" y1="187" x2="190" y2="187" />
<path d="M110,353 Q110,330 140,330" fill="none" stroke="blue" /> <line stroke="blue" x1="140" y1="330" x2="160" y2="330" /> <path d="M190,307 Q190,330 160,330" fill="none" stroke="blue" /> <line stroke="blue" x1="190" y1="187" x2="190" y2="307" />

<path d="M110,353 Q110,330 140,330" fill="none" stroke="blue" /> <line stroke="blue" x1="140" y1="330" x2="240" y2="330" /> <path d="M270,307 Q270,330 240,330" fill="none" stroke="blue" /> <line stroke="blue" x1="270" y1="127" x2="270" y2="307" />

<text text-anchor="start" x="310" y="304"
 font-family="Mono" font-size="14.00" fill="black">
d20e93f Fix build.
</text>
<text text-anchor="start" x="310" y="244"
 font-family="Mono" font-size="14.00" fill="black">
9f52c1e Merge hotfix in master.
</text>
<text text-anchor="start" x="310" y="364"
 font-family="Mono" font-size="14.00" fill="black">
6a89757 Add LICENSE, build file.
</text>
<text text-anchor="start" x="310" y="424"
 font-family="Mono" font-size="14.00" fill="black">
a3982ea Initial commit.
</text>
<text text-anchor="start" x="310" y="184"
 font-family="Mono" font-size="14.00" fill="black">
f12efbc Merge hotfix in develop (via master).
</text>
<text text-anchor="start" x="310" y="124"
 font-family="Mono" font-size="14.00" fill="black">
a0a0a50 CRFT-0001 Start blue dot feature.
</text>
</g>
</svg>
