<?xml version="1.0" encoding="UTF-8" standalone="no"?>
<!DOCTYPE svg PUBLIC "-//W3C//DTD SVG 1.1//EN" "http://www.w3.org/Graphics/SVG/1.1/DTD/svg11.dtd">
<svg
  viewBox="0 0 700 500"
  xmlns="http://www.w3.org/2000/svg"
  xmlns:xlink="http://www.w3.org/1999/xlink">
<g id="git" class="graph"
  transform="scale(1 1) rotate(0) translate(0 0)">
<title>Example Git graph</title>
<defs>
  <g id="root-commit"> <!-- Double circle -->
    <ellipse fill="#f0f0f0" stroke="none" cx="0" cy="0" rx="15" ry="15"/>
    <ellipse fill="none" stroke="blue" cx="0" cy="0" rx="7" ry="7"/>
    <ellipse fill="none" stroke="blue" cx="0" cy="0" rx="4" ry="4"/>
  </g>
  <g id="commit">
    <ellipse fill="#f0f0f0" stroke="none" cx="0" cy="0" rx="15" ry="15"/>
    <ellipse fill="none" stroke="blue" cx="0" cy="0" rx="7" ry="7"/>
  </g>
  <g id="selected-commit"> <!-- Filled blue -->
    <ellipse fill="#f0f0f0" stroke="none" cx="0" cy="0" rx="15" ry="15"/>
    <ellipse fill="blue" stroke="blue" cx="0" cy="0" rx="7" ry="7"/>
  </g>
  <g id="arc"> <!-- Vertical arc -->
    <line stroke="#f0f0f0" stroke-width="8" x1="0" y1="8" x2="0" y2="52" />
    <line stroke="blue" x1="0" y1="07" x2="0" y2="53" />
  </g>
  <g id="left-arc"> <!-- Bezier arc, going to (bottom) left -->
    <path d="M-60,52 Q-60,30  -30,30       T0,7"
          fill="none" stroke="blue" />
    <!-- Show Bezier control points
    <path d="M-60,52 L-60,30 L-30,30 L0,30 L0,7"
          fill="none" stroke="red" />
    -->
  </g>
</defs>
<text text-anchor="start" x="5" y="20"
 font-family="Mono" font-size="14.00" fill="black">
example-1.git
</text>
<use xlink:href="#commit" x="80" y="300" /><text text-anchor="end" x="60" y="304" font-family="Mono" font-size="14.00" fill="black">hotfix</text>
<use xlink:href="#commit" x="240" y="240" /><text text-anchor="end" x="220" y="244" font-family="Mono" font-size="14.00" fill="black">master</text>
<use xlink:href="#commit" x="240" y="360" />
<use xlink:href="#root-commit" x="240" y="420" />
<use xlink:href="#commit" x="400" y="180" /><text text-anchor="end" x="380" y="184" font-family="Mono" font-size="14.00" fill="black">develop</text>
<use xlink:href="#selected-commit" x="560" y="120" /><text text-anchor="end" x="540" y="124" font-family="Mono" font-size="14.00" fill="black">feature</text>
<path d="M240,353 Q240,330 210,330" fill="none" stroke="blue" /> <line stroke="blue" x1="210" y1="330" x2="110" y2="330" /> <path d="M80,307 Q80,330 110,330" fill="none" stroke="blue" />

<path d="M80,293 Q80,270 110,270" fill="none" stroke="blue" /> <line stroke="blue" x1="110" y1="270" x2="210" y2="270" /> <path d="M240,247 Q240,270 210,270" fill="none" stroke="blue" /> <line stroke="blue" x1="240" y1="247" x2="240" y2="247" />
<line stroke="blue" x1="240" y1="247" x2="240" y2="353" />

<line stroke="blue" x1="240" y1="367" x2="240" y2="413" />


<path d="M240,233 Q240,210 270,210" fill="none" stroke="blue" /> <line stroke="blue" x1="270" y1="210" x2="370" y2="210" /> <path d="M400,187 Q400,210 370,210" fill="none" stroke="blue" /> <line stroke="blue" x1="400" y1="187" x2="400" y2="187" />
<path d="M240,353 Q240,330 270,330" fill="none" stroke="blue" /> <line stroke="blue" x1="270" y1="330" x2="370" y2="330" /> <path d="M400,307 Q400,330 370,330" fill="none" stroke="blue" /> <line stroke="blue" x1="400" y1="187" x2="400" y2="307" />

<path d="M240,353 Q240,330 270,330" fill="none" stroke="blue" /> <line stroke="blue" x1="270" y1="330" x2="530" y2="330" /> <path d="M560,307 Q560,330 530,330" fill="none" stroke="blue" /> <line stroke="blue" x1="560" y1="127" x2="560" y2="307" />

<rect x="422" y="234" width="280" height="22"
fill="#f0f0f0" fill-opacity="0.9" />
<text text-anchor="middle" x="560" y="250"
 font-family="Mono" font-size="14.00" fill="black">
git checkout -b feature develop
</text>
</g>
</svg>
